<?xml version="1.0" encoding="UTF-8"?>
<svg id="Layer_1" xmlns="http://www.w3.org/2000/svg" version="1.1" viewBox="0 0 234 162">
  <!-- Generator: Adobe Illustrator 30.2.1, SVG Export Plug-In . SVG Version: 2.1.1 Build 1)  -->
  <defs>
    <style>
      .st0 {
        fill: #010101;
      }

      .st1 {
        fill: #ee2724;
      }

      .st2 {
        fill: #ed1c24;
      }

      .st3 {
        fill: #fff;
      }

      .st4 {
        fill: #009444;
      }
    </style>
  </defs>
  <path class="st2" d="M124.6,154.6c-.4,0-.7,0-1.1,0-4.5,0-9.2-.6-13.9-1.6-6.1-1.3-12.1-3.3-17.8-6-.5-.2-1-.5-1.4-.8-4.2-3.1-7.3-5.8-9.9-8.7-2.4-2.6-4.1-5.1-5.3-7.7-.2-.4-.3-.8-.5-1.2,0-.2-.1-.4-.2-.5h0c0-.1,0-.2,0-.2.5-.5.8-1.1,1.1-1.9,0-.2.2-.4.2-.5,0-.1.1-.3.2-.4,0,0,.2-.3.4-.3s0,0,0,0h.2s0,.2,0,.2c0,.4,0,.8,0,1.3,0,.3,0,.6,0,.9,0,0,0,.2.1.3.1.3.2.5.4.8.2.2.4.5.6.7,0,0,0,0,0,0,0,0,.2.2.2.3.1.4.4.7.7,1,.1.1.3.3.4.5.2.2.3.4.6.6,0-.3,0-.6-.1-.9,0,0,0-.2,0-.2,0-.6-.2-1.2-.1-1.8,0-.7,0-1.4-.4-2.2,0,0,0,0,0-.1,0-.2-.2-.4,0-.7v-.2c.1,0,.3.1.3.1,0,0,0,0,0,0,0,0,.1,0,.2.2.3.5.7.8,1.2,1.2.2.2.4.3.6.5,0,0,0,0,0,0,0,0,.1,0,.2,0,.3,0,.5.2.6.3,0,0,.1,0,.3,0h0c.5,0,1,.2,1.4.4.3.1.6.2.9.3h.2s0,.2,0,.2c0,2.9,0,7.4-.2,8.1h0c0,.1-.1.2-.1.2,0,0-.1,0-.2,0-.1,0-.2,0-.3,0,0,0,0,0,0,0,0,0-.1,0-.2,0,0,0-.2,0-.2-.1,0,0-.1,0-.2,0-.2,0-.4.2-.4.5,0,.3.1.6.4.7.7.4,1.4.7,2.1,1.1.6.3,1.1.6,1.7.9,0,0,.2,0,.3.1,0,0,0,0,.1,0,.2,0,.3,0,.3-.2.2-.4,0-.8-.3-1,0,0-.2,0-.2-.1,0,0-.2,0-.2-.1-.5-.3-.8-.8-.9-1.4,0-.1,0-.2,0-.3,0-.2,0-.3,0-.5,0-1.7,0-3.5,0-5.4,0,0,0,0,0,0,0-.1,0-.4.3-.5h.2c0,0,0,.1,0,.1.1.2.2.5.3.7,1,3.1,2,6.1,3,9.5,0,0,0,0,0,.1,0,.2,0,.3.2.4.1.2.3.3.6.3,0,0,0,0,0,0,.2,0,.3-.2.4-.3,0,0,0-.1,0-.2,0,0,0-.2.1-.3l.7-1.5c.7-1.5,1.4-3,2.1-4.5.3-.6.5-1.2.8-1.8v-.3c.2-.2.4-.2.5-.2h0c0,0,.4,0,.4.4,0,.3,0,.7,0,1,0,.2,0,.5,0,.7,0,.7,0,1.3,0,2,0,1.2,0,2.5-.1,3.8,0,.3,0,.7,0,1,0,.5-.4.5-.5.5,0,0-.2,0-.3,0,0,0,0,0-.1,0-.2,0-.3-.1-.5-.1h0c-.1,0-.3,0-.4.3,0,.5,0,.8.5,1,1.7.6,3.3,1.2,5,1.7.2,0,.3,0,.5,0s0,0,0,0c0,0,.2,0,.2-.1.1-.2.2-.4.1-.7,0-.2-.2-.4-.5-.5,0,0-.1,0-.2,0,0,0-.2,0-.3,0-.6-.2-.9-.7-.9-1.3,0-.1,0-.2,0-.4,0-.3,0-.7,0-1,0-3.7.2-7.4.3-10.9,0-.4,0-.8,0-1.2,0,0,0-.2,0-.3,0-.1,0-.3,0-.5,0-.3.3-.5.6-.5,0,0,0,0,.1,0,0,0,.2,0,.3,0,0,0,.2,0,.2,0s.1,0,.2,0c.2,0,.4-.1.4-.4,0,0,0-.1,0-.2,0-.5,0-.5-.5-.6-.5,0-1.1-.2-1.6-.2-.3,0-.5,0-.8,0-.1,0-.3,0-.4,0-.2,0-.5,0-.7,0,0,0,0,0,0,0-.2,0-.3,0-.4.3,0,.2-.2.4-.2.5,0,0,0,.1,0,.2l-.8,1.8c-1,2.2-1.9,4.5-2.9,6.8,0,0,0,0,0,.1,0,.2-.2.5-.5.7h-.2c0,0,0-.1,0-.1,0,0,0-.1,0-.2,0-.1-.1-.3-.1-.4-.2-.6-.4-1.2-.6-1.8-.4-1.2-.8-2.5-1.3-3.8-.3-.9-.7-1.9-1-2.8-.3-.8-.6-1.6-.8-2.4-.1-.4-.3-.6-.7-.6-.5,0-.9-.2-1.4-.3-.2,0-.4,0-.6-.1h-.2s0-.2,0-.2c0,0,0,0,0,0,0-.1,0-.3.1-.4,0,0,.1,0,.2,0,.3-.1.6-.3.9-.3.3,0,.5-.1.8-.2.2,0,.3,0,.5-.1,0,0-.1,0-.2,0,0,0,0,0,0,0-.4,0-.8-.1-1.2-.3-.1,0-.3,0-.4-.1-.2,0-.5,0-.7-.2,0,0-.2,0-.3,0s-.1,0-.2,0c0,0-.1,0-.2,0-.2,0-.4-.1-.4-.3,0,0,0-.1-.3-.1-.1,0-.3,0-.5,0-.4,0-.8,0-1.2.2-.7.2-1.3.4-2,.6,0,0,0,0,0,0,0,0-.1,0-.3,0s-.3,0-.4-.2h-.1c0-.1.1-.3.1-.3,0,0,.1-.1.2-.2.1-.2.3-.3.4-.5.1-.1.2-.3.4-.4.4-.4.6-.6.6-1.1,0-.2.1-.3.2-.4,0,0,0,0,0,0h0c.1-.1.2-.2.3-.3.3-.7.8-1.3,1.2-1.9.2-.2.4-.5.5-.8h0c0,0,0,0,0,0,.3,0,.6,0,.9-.1.8-.1,1.6-.3,2.4-.4.7,0,1.5-.1,2.3-.1s1.5,0,2.2,0c4.6.4,9.4,1.5,15,3.6,2.9,1.1,5.8,2.3,8.6,3.5,1.2.5,2.4,1,3.6,1.5,2.9,1.2,6.3,2.6,9.8,3.6,2.6.8,4.9,1.3,7.3,1.5,1.3.1,2.5.2,3.7.2s1.2,0,1.9,0c4.6-.3,9.4-1.4,14.8-3.3,4.1-1.5,8.3-3.4,12.8-5.9.7-.4,1.3-.7,2-1.1.8-.5,1.7-1,2.6-1.4,0,0,.1,0,.2-.1.2-.1.4-.3.8-.3s0,0,0,0h.2s0,.2,0,.2c0,.8,0,1.5-.2,2.2,0,0,0,.2,0,.2-.6,4.2-2.2,8.1-4.9,12.2-1.4,2.1-3,4.1-4.9,6.1,0,0-.2.2-.2.2,0,0,0,0,0,0h0c0,0-.1,0-.1,0-.4,0-.3-.4-.3-.5,0,0,0,0,0,0,0-2.2,0-4.4,0-6.6h0c0-.2,0-.3,0-.4,0-.4-.2-.6-.6-.6s-.2,0-.2,0c-.3,0-.5.2-.8.3h0c-1.5.6-2.8,1.5-4.1,2.8-.7.8-1.3,1.6-1.8,2.5-.5.9-.8,1.9-1,3,0,.5,0,1,.2,1.6.2.8.8,1.2,1.5,1.2s.2,0,.3,0c.4,0,.8-.2,1.2-.5.6-.4,1.1-.9,1.6-1.5.3-.4.6-.9,1-1.4.2-.3.4-.7.6-1,0-.2.2-.3.3-.5h0c0-.1.2-.1.2-.1.3,0,.4.2.3.5,0,0,0,0,0,0,0,.1,0,.3,0,.4,0,0,0,.2,0,.3,0,.7,0,.8.8,1h.2c0,0,0,.3,0,.3,0,.2-.2.3-.3.5,0,0,0,0,0,0-4.9,4.8-10.4,8.5-16.3,11-3.3,1.4-6.9,2.5-10.7,3.2-3.5.7-7.2,1-10.9,1ZM124.3,142.2c0,.1,0,.3,0,.4,0,.3,0,.7,0,1,.2,1.2.6,2.3,1.4,3.1.6.7,1.3,1.1,2.1,1.3.3,0,.6,0,.9,0,1.4,0,2.9-.7,3.7-1.8,0-.1.1-.3.2-.4,0-.3,0-.6-.3-.8,0,0-.2,0-.2,0-.1,0-.3,0-.4.2,0,0-.2.2-.3.3-.1.1-.3.2-.4.4-.6.5-1.3.7-2,.7-1,0-1.8-.5-2.4-1.3-.1-.2-.3-.4-.4-.7-.8-1.8-.7-3.5.2-5.1.7-1.1,1.5-1.6,2.7-1.6s.6,0,1,.1c.4,0,.8.3,1.2.5,0,0,.1,0,.2.1.1,0,.2.1.3.2,0,0,.2,0,.3,0,.3,0,.5-.2.5-.5,0-.3,0-.6-.3-.9-.8-.7-2-1.2-3.2-1.2s-2.2.3-3.2,1.6c-1,1.2-1.5,2.6-1.5,4.2ZM120.7,143.3c0,1.1,0,2.2,0,3.4,0,.3,0,.6,0,.9,0,0,0,.2.2.3,0,0,.2,0,.3,0,.3,0,.6-.2.6-.5,0-.2,0-.3,0-.5h0c0-3.4,0-6.4,0-9.3,0-.3,0-.5,0-.7,0-.3-.3-.5-.6-.5h0c-.3,0-.6.2-.6.5,0,.2,0,.5,0,.8h0c0,1.1,0,2.2,0,3.3v1.3s0,0,0,0c0,.3,0,.6,0,1ZM114.7,143.3h0c0,.1,0,.1,0,.2,0,0,0,.1.1.2.3.6.7,1.1,1,1.7.3.5.6,1,.8,1.5,0,0,0,0,0,.1,0,.2.2.3.3.5.1.1.3.3.5.3s.2,0,.2,0c.3-.2.5-.4.4-.8,0-.2-.2-.4-.3-.7-.5-.8-.9-1.7-1.4-2.5-.2-.4-.5-.8-.7-1.3,0,0-.1-.2-.1-.3,0,0-.1-.2-.2-.3-.1-.2-.1-.4,0-.6.1-.2.2-.4.3-.5h0c.2-.3.4-.6.6-.9.5-.7,1-1.5,1.4-2.2.2-.3.3-.5.3-.7,0-.3,0-.6-.4-.8,0,0-.1,0-.2,0-.2,0-.3,0-.5.2,0,.1-.2.2-.3.4,0,0,0,0,0,.1-.2.3-.4.5-.5.8-.3.5-.7,1-1,1.6,0,0,0,0,0,.1-.1.2-.2.4-.5.5h-.2c0,0-.1,0-.1,0,0,0,0,0,0-.1,0,0-.1-.2-.2-.3-.3-.5-.6-1-.9-1.5-.3-.5-.5-1-.8-1.4h0c-.1-.3-.2-.4-.3-.6-.1-.2-.3-.2-.5-.2s-.2,0-.2,0c-.2.1-.4.4-.3.7,0,.2.1.4.2.6h0c.2.4.4.8.6,1.1.5.9,1,1.7,1.5,2.6.2.4.5.9,0,1.5,0,0,0,.1-.1.2,0,0,0,0,0,0-.2.3-.4.6-.6.8-.5.7-1,1.4-1.4,2.1-.2.2-.3.4-.3.6,0,.3.1.7.4.8,0,0,.1,0,.2,0,.2,0,.3,0,.5-.3.1-.1.2-.3.3-.4h0c.2-.4.4-.7.6-1,.4-.5.7-1.1,1.1-1.7,0,0,0,0,0,0,0-.1.2-.4.6-.4h.1ZM141.7,135.1c0,0-.2,0-.3,0-1.4.2-2.5.6-3.5,1.3-1.5,1-2.6,2.4-3.5,4-.7,1.3-.9,2.6-.9,4,0,.5.1,1,.3,1.4.4.9,1.1,1.4,2.1,1.4s0,0,0,0c.6,0,1.1-.2,1.7-.6.8-.5,1.4-1.3,1.9-2,.5-.6.8-1.4,1.2-2.1l.2-.4.2.2s0,0,0,0c0,0,.1.1.1.2,0,.7,0,1.4,0,2,0,.3,0,.6.1.8,0,.3.3.4.5.4s0,0,0,0c.3,0,.5-.2.6-.5,0-.3,0-.6,0-.9,0-2.9-.1-5.8-.2-8.4h0c0-.2,0-.4,0-.5,0-.4-.3-.6-.7-.6,0,0,0,0-.1,0ZM101.4,140c0,1.8.4,3.1,1.1,4.2.8,1.2,1.9,1.9,3.4,2.1,0,0,.2,0,.3,0h0c1.2,0,2.4-.7,3-1.7,0,0,0,0,0,0,0,0,0,0,0,0,.2-.3,0-.7-.1-.9,0,0-.2-.1-.4-.1s-.4,0-.5.2c-.2.1-.4.3-.5.4h0c-.5.4-1,.7-1.5.7-.4,0-.8,0-1.2-.3-.6-.3-1-.7-1.4-1.2-.4-.6-.7-1.3-.8-2.1,0-.2,0-.3,0-.4,0,0,.2-.1.4-.1s0,0,.1,0c.2,0,.4,0,.6,0,.5,0,1,.2,1.5.3,1,.2,1.9.4,2.9.6.2,0,.4,0,.6,0,.4,0,.6-.1.7-.5,0-.3,0-.6,0-.9-.1-1.4-.6-2.6-1.4-3.6-.3-.4-.7-.7-1.1-1-.6-.4-1.3-.6-1.9-.6-1,0-1.9.4-2.6,1.2-.5.6-.8,1.2-1,1.8-.2.6-.2,1.3-.3,2ZM146.3,134.4s0,0,0,0c-.3,0-.5.3-.6.6,0,.2,0,.5,0,.8h0c0,1,0,2,0,2.8v.6s0,1.4,0,1.4c0,1.4,0,2.5.1,3.6h0c0,.2,0,.4,0,.5,0,.3.2.4.5.4s0,0,0,0c.3,0,.5-.2.6-.5,0-.2,0-.5,0-.7,0,0,0,0,0-.1,0-.6,0-1.1,0-1.7,0-1,0-2.1,0-3.1,0-.5.1-1,.4-1.3,0-.1.2-.2.3-.3,0,0,.1-.2.2-.2.5-.6.9-1,1.3-1.4.3-.2.7-.5,1.2-.5,0,0,0,0,0,0,.4,0,.7.2.9.6.2.5.2,1,.2,1.5,0,1.9,0,3.5.1,5h0c0,.3,0,.4,0,.6,0,.3.2.4.5.4s0,0,.1,0c.3,0,.5-.3.5-.5,0-.2,0-.4,0-.6v-.6c0-1.3,0-2.6,0-3.9,0-.5,0-1-.1-1.5,0-.6-.2-1-.4-1.4-.4-.6-.9-1-1.6-1s-.3,0-.4,0c-.8.2-1.5.5-2.2,1.2,0,0,0,0-.1.1-.1.1-.3.2-.4.4,0,0-.2,0-.2,0-.2,0-.3-.1-.3-.3,0,0,0,0,0,0,0,0,0-.1,0-.1-.2-.4-.3-.4-.5-.4ZM121.4,128.2c-.2,0-.5.1-.6.3-.2.3-.4.6-.4,1,0,.4.2.7.4,1,.2.1.4.2.6.2s.4,0,.6-.2c.3-.2.4-.6.4-1,0-.4-.1-.7-.4-1-.2-.2-.4-.3-.6-.3Z"/>
  <path class="st4" d="M119.2,101.7c-.3,0-.5,0-.8,0,0,0-.1,0-.2-.1-.7-1.2-.9-2.5-.7-3.9.1-.6.3-1.4.8-2,0,0,0,0,0,0,0,0,0,0-.1,0-1,0-2,0-3,0-3.7,0-7.5,0-10.6-.2-4.1,0-7.7-.3-11.1-.5-.9,0-1.8-.1-2.6-.2-1.4,0-2.8-.2-4.1-.3-1.6-.1-3.3-.3-4.9-.4h-.8c-1.8-.2-3.6-.4-5.4-.6-2.3-.3-4.5-.6-6.6-.9-2.1-.3-4.1-.6-6.2-.9h0c-3.3-.5-6.9-1.2-10.9-2.1-9.8-2.2-19.5-5.3-28.8-9.4-3.2-1.4-6.4-2.8-9.6-4.2-1.1-.5-2.2-1-3.2-1.4,0,0-.1,0-.2,0-.3-.2-.7-.3-1-.6,0,0,0-.2,0-.3,0,0,.1-.1.2-.1s0,0,0,0c.9.2,1.8.4,2.6.6,1.9.4,3.8.8,5.7,1.3.8.2,1.6.4,2.5.6,5.4,1.2,11,2.5,16.5,3.6,5,1,9.9,2,14.7,2.8,3.8.7,7.7,1.3,11.6,1.8,4,.6,7.7,1,11.2,1.4,3.6.4,6.9.7,10.1.9,5.2.4,10.6.7,16.7.9,4.5.2,9.2.2,13.9.2s7.6,0,11.5-.2c4.5-.1,8.9-.3,12.7-.6,3.5-.2,6.9-.5,9.8-.7,3.1-.3,6.4-.6,10-1,4.1-.5,8-1,11.8-1.5,3.1-.5,6.3-1,9.3-1.5h.1c7.2-1.3,14.5-2.8,21.5-4.2,5-1,10.2-2.1,15.1-3.1,1.2-.2,2.5-.5,3.7-.7.7-.1,1.3-.2,2-.4.3,0,.7-.1,1.1-.2,0,0,0,0,0,0,0,0,.2,0,.2.2,0,.1,0,.2-.1.3-.7.4-1.4.6-2.1.8-.3,0-.5.2-.8.3-1.6.6-3.2,1.2-4.8,1.9-3.7,1.4-7.5,2.9-11.3,4.4-6.3,2.4-12,4.3-17.3,5.9-4.8,1.4-9.9,2.6-15.2,3.6-3.8.7-7.8,1.4-11.7,1.9-2.5.3-5.1.7-8.2,1-2.8.3-5.8.6-8.7.8-1.5.1-3.1.2-4.6.3-.6,0-1.3,0-1.9.1-2.9.2-5.8.3-8.7.4-1.2,0-2.3,0-3.5,0-1.3,0-2.7,0-4,.1,0,0,0,0,0,0,0,0-.1,0-.2,0,0,0-.1,0-.2,0,0,0-.2,0-.3,0,1.1,1.8,1.2,3.7.2,5.8,0,0,0,0,0,0,0,0,0,0,0,0,0,0,0,.1-.2.1-.3,0-.5,0-.8,0Z"/>
  <path class="st2" d="M224.8,123.3s0,0,0,0c-1.2-.2-2.4-.5-3.6-.7-2.7-.5-5.4-1.1-8.1-1.6-5.3-1.1-10.6-2.2-15.8-3.2-1.4-.3-2.9-.6-4.3-.9-4.5-.9-9.1-1.8-14.3-2.7-2.9-.5-5.7-.9-8.8-1.4-2.4-.4-5-.7-7.6-1-1.8-.2-3.6-.4-5.3-.6h-.3c-2.2-.3-4.5-.5-6.8-.7-1.6-.1-3.4-.3-5.6-.4-2.5-.2-5.1-.3-7.8-.5-1.7,0-3.4-.2-5.1-.2-4.8-.2-9.8-.3-14.9-.3s-6.2,0-9.4,0c-3,0-6.1.2-10.2.4-2.9.1-5.9.3-9.3.6-2.7.2-5.6.4-8.6.7-1.9.2-3.8.4-5.6.6-.7,0-1.4.2-2.1.2-.7,0-1.4.2-2.1.2-.5,0-1,.1-1.5.2-.2,0-.4,0-.5.1,0,0,0,0-.1,0s0,0,0,0c0,0-.1,0-.2,0-.2,0-.4,0-.6,0,0,0,0,0,0,0-1.1,0-2.1.2-3.2.4-.3,0-.6,0-1,.1-2.4.4-4.7.7-6.8,1.1-3.2.5-5.8,1-8.4,1.5-3.8.7-7.6,1.5-11.3,2.3-3.4.7-6.8,1.5-10.2,2.2-.9.2-1.8.4-2.6.6-2.9.6-5.8,1.3-8.6,1.9-1,.2-1.9.4-2.9.7,0,0,0,0,0,0,0,0-.2,0-.3,0s-.2,0-.2,0c0,0-.1,0-.1-.2s0-.2,0-.2c.2-.2.4-.3.6-.4,0,0,0,0,.1,0,.7-.3,1.5-.7,2.2-1,5.2-2.3,10.7-4.8,16.1-6.9,7.6-3,15.6-5.5,23.7-7.3,4.2-.9,8.5-1.8,13-2.5,3.2-.5,5.9-.9,8.4-1.2.9,0,1.7-.2,2.6-.3,1.6-.2,3.2-.4,4.9-.5,2.5-.2,5.1-.4,7.5-.6,2.1-.2,4.3-.3,7.2-.5,1.5,0,3.1-.2,4.6-.2,4.6-.2,9.4-.3,14.5-.3s1.3,0,1.9,0h0c.1,0,.3,0,.4,0,0,0,.2,0,.2,0,0,0,0,0,0,0,.3,0,.5,0,.8,0s.5,0,.7,0c0,0,0,0,0,0s0,0,0,0c0,0,.2,0,.3,0,.2,0,.4,0,.5,0h0c.1,0,.3,0,.4,0,3.4,0,6.9.1,9.9.3,4.5.2,8,.4,11.2.6.8,0,1.5.1,2.3.2,1.1,0,2.3.2,3.4.3,2.2.2,4.3.4,6.4.7,1.8.2,3.5.4,4.8.6,2.4.3,4.9.7,7.5,1.1,3.3.5,6.7,1.2,10.1,1.9,7.1,1.5,14.2,3.5,21.3,5.9,4.6,1.6,9.1,3.4,13.6,5.1.9.3,1.7.7,2.6,1,1.8.7,3.6,1.4,5.4,2.1,1.3.5,2.7,1,4.1,1.6,0,0,.2,0,.3,0,.3.1.6.2.9.5h0c0,0,.1.2,0,.3,0,0-.1.1-.2.1Z"/>
  <path class="st4" d="M80,131.8c-.5-.2-.8-.6-1-.9-.1-.1-.2-.3-.4-.4-.3-.3-.6-.7-.8-1.2,0,0,0,0,0,0,0,0,0,0,0,0-.3-.2-.5-.5-.7-.8-.2-.3-.3-.5-.4-.8,0,0,0-.2-.1-.3-.2-.4-.2-.8,0-1.2,0-.2,0-.4.1-.5,0,0,0,0,0,.1,0,.2-.2.4-.2.5-.3.6-.7,1.4-1.2,2h0s0,0,0,0c-.3.1-.5.3-.7.5-.3.5-.7,1-1.3,1.4l-.2.2v-.3c-.3-.5-.3-1-.3-1.4,0-.4.1-.7.2-1.1,0-.3.2-.7.2-1h0c0,0,0-.1,0-.1.2-.2.3-.4.4-.7.2-.3.4-.6.6-.9h-.4c0,0,0,0,0,0,0-.2,0-.4,0-.5,0,0-.1,0-.2,0-.3,0-.6,0-.9,0h-.1s0-.1,0-.1c-.1-.3,0-.5.1-.6,0,0,0,0,0,0,0,0,.1-.2.2-.3,0,0-.1,0-.2-.1-.5-.3-1-.6-1.4-.9l-.4-.3c-.4-.2-.8-.5-1.2-.7-.8-.5-1.7-1-2.5-1.5-.8-.5-1.5-1.1-2-1.7-.8-1-1.1-2.2-.7-3.5.1-.5.4-.9.8-1.3.3-.3.5-.5.8-.8.1-.1.2-.2.3-.3h0s0,0,0,0c.2,0,.5,0,.7,0s.1,0,.2,0h.3s0,.3,0,.3c-.3.8,0,1.5.7,2,.4.3.8.5,1.2.8,1.2.7,2.4,1.4,3.6,2,.6.3,1.1.6,1.7,1,.3.2.7.4,1,.6,0,0,.2,0,.2.1,0,0,0,0,0,0,0-.1,0-.4.1-.6,0,0,.2-.2.2-.4,0,0,0-.1.1-.2h0c0,0,.1-.1.1-.1,0,0,0,0,0,0,.3,0,.4.3.4.4,0,0,0,0,0,0,.1,0,.2.1.3.2,0,0,0,0,0,0h0c0,0,0,0,0,0,0,.2.3.5.3.5,0,0,.1.3.1.4.2-.4.4-.7.7-1,0,0,0-.1,0-.2,0,0,0,0,0-.1h0s0,0,0,0c0,0,.2-.3.4-.3s0,0,0,0h0s0,0,0,0c0,0,0,0,0,0h.1c0-.2.1-.3.2-.3,0,0,0,0,0,0,0,0,.1-.2.3-.2h0s0,0,0,0c0,0,.2,0,.3-.2.1-.1.3-.2.5-.3,0,0,.1,0,.2,0h0c.2-.2.4-.5.8-.5,0,0,0,0,0-.1,0,0,.2-.2.3-.3.3-.1.7-.3,1.1-.3s.1,0,.2,0h.1s0,.1,0,.1c0,.1,0,.3,0,.3,0,0,0,0,0,0h.2c0,.1-.1.3-.1.3-.2.3-.4.5-.5.8-.4.6-.8,1.2-1.2,1.8-.1.2-.3.3-.4.4h0s0,0,0,0c0,0,0,0,0,0,0,.7-.3,1-.7,1.4-.1.1-.2.2-.3.3,0,0-.2.2-.2.3.6-.2,1.2-.4,1.8-.6.5-.2,1-.2,1.3-.2s.3,0,.5,0c.2,0,.6,0,.7.5.1,0,.2,0,.4,0,.2,0,.4,0,.5.2.1.1.3.1.5.2.2,0,.4,0,.6.2.3.2.7.3,1,.3h0c.2,0,.4.1.6.2,0,0,.2.1.3.2l.6.3h-.7c-.4.2-.7.3-1,.4-.3,0-.6.2-.8.2-.3,0-.5.2-.8.3,0,0,0,0,0,0,0,0,0,0,0,0v.3s-.3,0-.3,0c-.1,0-.2,0-.4,0-.3,0-.6,0-.8-.2,0,0-.2,0-.2,0-.2,0-.3,0-.5.3h0c0,.1-.1.1-.1.1-.2,0-.4,0-.6,0s-.3,0-.4,0c.2.1.4.2.6.3h.2c0,.1,0,.2.1.2.2,0,.4.2.5.5,0,.2.2.2.3.3,0,0,0,0,.1,0,0,0,0,0,0,0,.1,0,.3.1.3.3,0,.2.2.3.4.5.1.1.3.2.4.4h0s0,0,0,0c.1.5,0,1.1,0,1.6,0,.2,0,.3,0,.5v.3s-.3,0-.3,0c-.3,0-.6-.2-.9-.3-.4-.2-.9-.3-1.3-.4h0c-.2,0-.4,0-.5-.2-.1-.1-.2-.1-.3-.1s0,0,0,0c0,0,0,0,0,0-.1,0-.3,0-.4-.2-.2-.2-.4-.3-.6-.5-.3-.2-.6-.4-.9-.7.3.7.4,1.4.3,2.1,0,.6,0,1.1.1,1.7,0,0,0,.2,0,.2,0,.4.1.9.1,1.4v.3s-.3-.1-.3-.1Z"/>
  <path class="st1" d="M156.6,140c-.2,0-.6,0-.7-.7,0-.6,0-1.1.1-1.6,0-.3.2-.7.4-1,1-2,2.4-3.5,4.2-4.6,0,0,0,0,0,0,.2,0,.4-.2.7-.2s0,0,0,0h.3s0,.3,0,.3c-.5,2.1-1.3,4-2.5,5.8-.3.5-.7,1-1.2,1.4-.3.3-.6.5-1,.6-.2,0-.3,0-.4,0Z"/>
  <path class="st1" d="M161.4,132.1c-.5,2.1-1.3,4-2.4,5.7-.3.5-.7.9-1.1,1.3-.3.2-.6.5-.9.6-.5.2-.7,0-.8-.4,0-.5,0-1,0-1.5,0-.3.2-.6.3-.9.9-1.9,2.3-3.4,4.1-4.5.2-.1.4-.2.7-.2Z"/>
  <g>
    <path class="st0" d="M75.4,58.6c-2.2,0-4.4-.6-6.7-1.7-.8-.4-1.4-.9-2-1.4h0c-.7-.6-1.1-1.4-1.2-2.4,0-.3,0-.6,0-.9,0-14.7,0-29.4,0-44h0c0-.5,0-.9.1-1.2.3-.9,1-1.4,1.9-1.4h0c.9,0,1.5.5,1.8,1.5.1.4.1.8.1,1.1h0c0,5.2,0,10.3,0,15.5v15.3c0,0,.1,0,.2,0,1.7-.9,3.5-1.4,5.4-1.5.4,0,.8,0,1.1,0,1.8,0,3.5.4,5,1.1,2.8,1.4,4.6,3.7,5.2,6.9.4,2,.4,3.8-.1,5.6-.3,1.3-.9,2.4-1.7,3.5-1.8,2.3-4.1,3.7-6.9,4.2-.7.1-1.4.2-2.2.2ZM75.8,41c-.9,0-1.9.1-2.9.4-1.2.3-2.3,1-3.2,1.5-.2.1-.3.3-.3.5,0,1.1,0,2.1,0,3.2,0,.4,0,.7,0,1.1,0,.4,0,.8,0,1.2,0,1.1,0,2.1,0,3.2,0,.3,0,.4.3.6,1.5,1,3,1.6,4.5,1.8.5,0,.9,0,1.3,0,1.1,0,2-.2,2.8-.5,3.4-1.5,5-4.5,4.3-8.1-.4-1.9-1.5-3.4-3.4-4.2-1-.5-2.2-.7-3.4-.7Z"/>
    <path class="st0" d="M95.2,58.6c-1.6,0-3-.4-4.2-1.2-1.5-1-2.3-2.4-2.6-4.4-.3-2.2.2-4.3,1.4-6.4.8-1.4,1.9-2.7,3.4-3.9,2.8-2.4,5.7-3.9,8.8-4.8,2.1-.6,4-.8,6-.8s.4,0,.6,0c.4,0,1,0,1.5.2.8.2,1.3.7,1.5,1.5,0,.3.1.6.1,1,0,5.4,0,10.8,0,16.2,0,.3,0,.6-.1,1-.3.9-.8,1.4-1.7,1.4,0,0,0,0-.1,0-.9,0-1.6-.5-1.9-1.2-.2-.4-.2-.9-.2-1.3,0-2,0-3.9,0-5.8,0,0,0,0,0,0,0,0,0,0,0,0,0,0,0,.1-.1.2-1.2,1.9-2.4,3.4-3.8,4.6-.6.6-1.3,1.1-2.1,1.7-1.6,1.1-3.4,1.8-5.2,2.1-.4,0-.8,0-1.2,0ZM107.3,41c-.9,0-1.9.1-2.9.3-3.7.7-6.9,2.4-9.6,5.1-1,1-1.7,2-2.1,3.2-.3.9-.5,1.7-.4,2.6.1,1.5,1.1,2.4,2.6,2.5.1,0,.3,0,.4,0h0c1.1,0,2.2-.3,3.3-.9,1.1-.6,2.2-1.4,3.4-2.7,2.4-2.6,4.2-5.8,5.3-9.9h0c0,0,0-.1,0-.2Z"/>
    <path class="st0" d="M26.2,58.6c-1.1,0-2.2-.2-3.3-.7-1.7-.7-2.8-2-3.3-3.7-.7-2.4-.4-4.8,1-7.3.8-1.4,1.8-2.7,3.3-4,3.5-3.1,7.4-4.9,11.7-5.6,1.1-.2,2.1-.2,3.1-.2s.7,0,1.1,0c.3,0,.7,0,1.1.2.9.2,1.4.8,1.6,1.7,0,.2,0,.5,0,.7h0c0,6.3,0,11.4,0,16.2,0,.3,0,.6,0,.9-.2.9-.8,1.5-1.7,1.5,0,0,0,0-.1,0-.9,0-1.6-.5-1.9-1.3-.1-.4-.2-.8-.2-1.2,0-1.3,0-2.7,0-4,0-.5,0-1,0-1.4v-.3c0,0-.1.2-.2.3-1.6,2.5-3.4,4.5-5.5,6-1.7,1.2-3.4,2-5.3,2.2-.5,0-.9.1-1.3.1ZM38.2,41c-1.3,0-2.5.2-3.8.5-2.3.5-4.4,1.5-6.4,2.9-1.4,1-2.5,2-3.3,3.1-1.1,1.5-1.6,3-1.6,4.6,0,1.1.8,2.4,2.4,2.5.2,0,.5,0,.7,0,.8,0,1.6-.2,2.4-.5,1.1-.5,2.2-1.2,3.1-2,3-2.8,5.1-6.4,6.4-11.1Z"/>
    <path class="st0" d="M134,58.5c-.2,0-.3,0-.5,0-1.6,0-2.8-.5-3.8-1.2-1.3-.9-2.1-2.1-2.4-3.5-.6-2.4-.2-4.8,1.2-7.2.5-.9,1.1-1.8,1.9-2.5,3-3.1,6.4-5.2,10.3-6.2,2-.6,4-.8,5.9-.8s.4,0,.5,0c.5,0,1,0,1.6.2.8.2,1.4.8,1.5,1.6,0,.2,0,.5,0,.8,0,6.1,0,11.4,0,16.3,0,.3,0,.6,0,.9-.2.9-.8,1.4-1.7,1.5,0,0-.1,0-.2,0-.9,0-1.6-.5-1.9-1.3-.1-.4-.2-.8-.2-1.3,0-1.7,0-3.5,0-5.2v-.3c0,0,0-.1,0-.2,0,0,0,0,0,0,0,0,0,0,0,0,0,0,0,.1-.1.2-1.3,2-2.6,3.6-4.1,4.9-1,.9-1.9,1.5-2.9,2-1.7.9-3.4,1.4-5.1,1.4ZM145.9,41s0,0-.1,0h0c-.2,0-.4,0-.6,0-.6,0-1.1,0-1.7.2-2.9.5-5.7,1.7-8.2,3.5-1.2.9-2.1,1.8-2.8,2.7-1.1,1.5-1.6,3-1.6,4.6,0,1,.7,2.3,2.4,2.5.3,0,.6,0,.8,0,.8,0,1.5-.1,2.2-.4,1.2-.5,2.4-1.2,3.4-2.2,1.3-1.2,2.4-2.5,3.3-4,1.3-2.1,2.3-4.5,3-7,0,0,0,0,0,0Z"/>
    <path class="st0" d="M212.6,58.5c-1.1,0-2.1-.1-3.1-.4-3.5-.9-5.8-3.1-6.9-6.5-.7-2.3-.8-4.7-.1-7.1.8-3.2,3.8-6.2,6.9-7,1.2-.3,2.3-.5,3.4-.5s1.6,0,2.4.3c1.7.4,3.3,1.3,4.7,2.6,1.9,1.8,3,4,3.1,6.5,0,.4,0,.9,0,1.2-.2.8-.7,1.3-1.5,1.5-.5.1-.9.1-1.3.1h0c-1.1,0-2.1,0-3.2,0h-6.3c-1.3,0-2.5,0-3.8,0-.3,0-.5,0-.7,0,0,0,0,0,0,0,0,.1,0,.3,0,.4.6,2.4,2,4,4.5,4.6.6.2,1.3.3,2.1.3s1,0,1.6-.1c.8,0,1.6-.4,2.5-.9.7-.4,1.3-.9,1.9-1.4.3-.2.6-.5.9-.7.3-.2.7-.3,1.1-.3s.4,0,.6,0c.7.2,1.4.9,1.3,2,0,.5-.3.9-.7,1.3-2.1,2.1-4.4,3.3-7,3.7-.7.1-1.5.2-2.1.2ZM218.7,45.4s0,0,0,0c-.5-1.5-1.5-2.7-2.8-3.5-1-.6-2.1-.8-3.6-.8h0c-2.6,0-5.1,1.7-6,4.2,0,0,0,0,0,0,0,0,0,.1,0,.2h12.5Z"/>
    <path class="st0" d="M120.6,58.2c-.2,0-.4,0-.6,0-.6-.2-1-.6-1.1-1.1,0-.2-.1-.5-.1-.8,0-.2,0-.3,0-.5,0,0,0-.1,0-.2v-3c0-14.8,0-29.5,0-44.3,0,0,0-.1,0-.2,0-.4,0-.8.1-1.3.3-.8,1-1.3,1.9-1.3.9,0,1.5.5,1.8,1.3,0,.2.1.5.1.8,0,.2,0,.4,0,.5,0,0,0,.1,0,.2v27.1c0,6.7,0,13.4,0,20.1,0,0,0,.1,0,.2,0,.2,0,.5,0,.7-.1,1.1-1,1.8-2,1.8Z"/>
    <path class="st0" d="M12.8,58.2c-.2,0-.5,0-.7-.1-.6-.2-.9-.6-1.1-1.1,0-.3-.1-.6-.2-.8,0-.2,0-.4,0-.5,0,0,0-.1,0-.2v-3.5c0-14.6,0-29.2,0-43.7,0,0,0-.1,0-.2,0-.4,0-.8.1-1.3.3-.8,1-1.4,1.9-1.4h0c.9,0,1.5.5,1.8,1.4.1.4.1.8.1,1.1h0c0,4.4,0,8.7,0,13v14.6c0,6.6,0,13.3,0,19.9,0,0,0,.2,0,.2,0,.2,0,.5,0,.7-.1,1.1-1,1.8-2,1.8Z"/>
    <path class="st0" d="M173.5,58.2s0,0,0,0c-.9,0-1.5-.5-1.8-1.3-.1-.4-.1-.8-.1-1.2,0,0,0-6.9,0-10.4s0-1.3-.1-1.9c0,0,0-.1,0-.2,0,0,0-.2,0-.2-.3-1.1-1-1.8-2.2-1.9-.3,0-.6,0-.8,0-.6,0-1.1,0-1.7.3-1,.3-2.1.9-3.2,1.7-.7.5-1.3,1-1.9,1.6l-.2.2c-.3.3-.4.5-.4.8,0,.1,0,.3,0,.4,0,0,0,.1,0,.2v2.2c0,2.4,0,4.8,0,7.2,0,.4,0,.8-.1,1.2-.3.9-1,1.4-1.9,1.4,0,0,0,0-.1,0-1,0-1.6-.6-1.7-1.6,0-.3,0-.5,0-.8h0c0-4.5,0-10.2,0-16h0c0-.4,0-.7,0-1,.2-.9,1-1.6,1.9-1.6s.4,0,.6,0c.6.2,1,.6,1.2,1.2,0,.3.2.7.2,1.1,0,.2,0,.3,0,.5h.1c.3-.3.5-.4.8-.6,1.5-1,3.1-1.8,4.8-2.1.7-.1,1.3-.2,2-.2s1.8.1,2.6.4c1.8.6,3,1.8,3.7,3.7.5,1.3.7,2.7.7,4.2,0,2.3,0,4.6,0,6.9v3.5s0,0,0,.1c0,0,0,.2,0,.3h0c0,.3,0,.5-.1.7-.3.8-1,1.3-1.8,1.3Z"/>
    <path class="st0" d="M160.6,40.5c.5-.4.9-.6,1.2-.9,1.4-1,3-1.7,4.7-2.1,1.5-.3,3-.3,4.4.2,1.8.6,2.9,1.8,3.6,3.5.5,1.3.7,2.7.7,4.1,0,3.5,0,6.9,0,10.4,0,.1,0,.2,0,.4,0,.2,0,.5-.1.7-.2.7-.9,1.2-1.7,1.1-.8,0-1.3-.4-1.5-1.2-.1-.4-.1-.8-.1-1.2,0-3.4,0-6.9,0-10.3s0-1.3-.2-1.9c0-.1,0-.3,0-.4-.3-1.2-1.1-1.9-2.4-2.1-.9-.1-1.8,0-2.6.2-1.2.4-2.3,1-3.3,1.7-.8.5-1.5,1.2-2.2,1.8-.3.3-.5.6-.5,1,0,.2,0,.4,0,.5,0,3.1,0,6.3,0,9.4,0,.4,0,.8-.1,1.2-.2.8-.9,1.3-1.8,1.2-.9,0-1.4-.5-1.5-1.4,0-.3,0-.5,0-.8,0-5.3,0-10.7,0-16,0-.3,0-.7,0-1,.2-1,1.2-1.6,2.2-1.3.5.2.9.5,1,1,0,.3.2.6.2,1,0,.3,0,.5,0,1Z"/>
    <path class="st0" d="M191.5,58.6c-.3,0-.5,0-.8,0-3-.2-5.3-1.1-7.3-2.7-2.1-1.8-3.4-4-3.7-6.7-.5-3.8.9-7,3.9-9.5,2.1-1.7,4.6-2.6,7.4-2.6s.7,0,1,0c1.8.1,3.6.5,5.2,1.2.8.3,1.6.8,2.3,1.3.6.5.9,1.1.8,1.9-.1.9-.9,1.6-1.7,1.6h0c-.2,0-.4,0-.6-.1-.2,0-.4-.2-.5-.3h0c-1.3-.7-2.4-1.2-3.7-1.5-1-.2-1.8-.3-2.6-.3s-1.3,0-1.9.2c-2.6.6-4.4,2.1-5.2,4.3-.9,2.3-.5,4.5,1.1,6.3,1.4,1.7,3.3,2.6,5.7,2.7,0,0,.2,0,.3,0s.2,0,.3,0c0,0,.2,0,.3,0s0,0,0,0c.1,0,.2,0,.3,0,1.8,0,3.6-.6,5.2-1.7.3-.2.6-.4,1.1-.5.2,0,.3,0,.4,0,.6,0,1,.2,1.4.7.3.4.4,1,.4,1.5,0,.5-.3,1-.7,1.3h0c-.5.4-1.1.8-1.7,1.1-2.2,1.1-4.3,1.6-6.4,1.6Z"/>
    <path class="st0" d="M110.4,84.9c-.7,0-1.4,0-2.1-.2-.8-.2-1.5-.5-2.1-1-1.2-.9-1.9-2.4-1.8-3.9,0-1.6.8-3,2.1-3.9.9-.6,2-1,3.3-1.2.3,0,.6,0,.9-.1.9-.1,1.9-.3,2.9-.4.7-.1,1.3-.3,1.9-.4.2,0,.2,0,.3,0,0,0,0-.2,0-.3,0-.4,0-.8-.1-1.3-.1-.6-.5-1.1-1.1-1.5-.4-.2-.7-.3-1.1-.4-.5,0-.9-.1-1.4-.1s-1,0-1.5.1c-1,.2-1.7.8-2.1,1.7,0,0,0,.2,0,.3,0,.3-.2.7-.5.8-.1,0-.2,0-.4,0-.2,0-.4,0-.6,0-.1,0-.2,0-.3,0-.4,0-.8-.1-1.2-.2-.2,0-.3,0-.4-.2,0-.1,0-.3,0-.5.5-2.2,1.7-3.6,3.6-4.3.9-.3,1.8-.5,2.6-.6.5,0,1,0,1.5,0,.8,0,1.5,0,2.2.2.5.1,1,.3,1.6.5,1.5.6,2.4,1.9,2.6,3.7,0,.5,0,1.1,0,1.6,0,0,0,.2,0,.3,0,.7,0,1.4,0,2.1,0,1.1,0,2.2,0,3.2,0,.7,0,1.4,0,2.1,0,.3,0,.6,0,.9,0,.7.2,1.3.4,1.8,0,0,0,0,0,.1,0,.2.2.4.1.7,0,.1-.1.2-.2.2,0,0-1.1,0-1.4,0-.4,0-.8,0-1.2,0-.3,0-.5-.2-.6-.4,0-.3-.2-.5-.2-.8h0c0-.2,0-.4-.1-.6h0c-.2.2-.4.3-.6.5-1.5,1.1-3.3,1.7-5.1,1.7ZM115.8,76.4c-1.6.5-3.2.8-4.8,1-.6,0-1.3.2-1.9.5-.7.3-1.2.9-1.3,1.6-.2,1.2.5,2.2,1.6,2.5.5.1,1,.2,1.5.2h0c1.2,0,2.3-.4,3.2-1.2.6-.5,1.1-1.1,1.3-1.9.2-.9.3-1.8.2-2.8Z"/>
    <path class="st0" d="M119.7,84.3c-.8,0-1.7,0-2.5,0-.2,0-.3-.1-.4-.3,0-.3-.2-.5-.3-.8,0-.3-.1-.5-.2-.8-.3.2-.6.5-.9.7-2.1,1.5-4.5,1.9-7,1.4-.7-.1-1.4-.5-2-.9-2.4-1.9-2.3-5.7.3-7.5,1-.7,2.1-1,3.2-1.2,1.3-.2,2.5-.3,3.8-.6.7-.1,1.3-.3,2-.4.4-.1.4-.2.5-.6,0-.5,0-.9-.1-1.4-.2-.7-.6-1.3-1.2-1.6-.4-.2-.8-.3-1.2-.4-1-.2-2-.2-3,0-1.1.2-1.8.9-2.3,1.9-.2.4-.1.9-.5,1-.3.1-.8,0-1.2,0-.4,0-.8-.1-1.2-.2-.2,0-.3-.1-.2-.4.5-2,1.5-3.4,3.5-4.1.8-.3,1.7-.5,2.6-.6,1.2,0,2.4-.1,3.6.1.5.1,1.1.3,1.6.5,1.5.7,2.3,1.9,2.4,3.5,0,.6,0,1.2,0,1.8,0,1.8,0,3.6,0,5.4,0,1,0,2,.1,3,0,.6.2,1.3.5,1.9,0,.2.2.4.2.7ZM116.1,76.2c0,0-.2,0-.2,0-1.6.5-3.2.8-4.8,1-.7,0-1.3.2-1.9.5-.8.4-1.3.9-1.4,1.8-.2,1.3.5,2.4,1.8,2.8,1.8.5,3.5.2,5-1,.7-.5,1.1-1.2,1.3-2,.3-1,.3-2,.2-3.1Z"/>
    <path class="st0" d="M139.3,84.9c-.8,0-1.7-.1-2.5-.3-2.6-.7-4.4-2.4-5.1-5-.7-2.3-.7-4.6,0-7,.5-1.6,1.4-3,2.7-3.9,1.3-.9,2.8-1.4,4.5-1.4h0c1,0,1.8,0,2.5.3,2.2.7,3.8,2.1,4.7,4.2.6,1.3.8,2.9.8,4.7,0,.3-.2.6-.6.6-.2,0-.3,0-.5,0h-3.9c-2.2,0-4.4,0-6.6,0-.2,0-.4,0-.6,0,0,0,0,0,0,0,0,2.3,1.3,4.3,3.3,4.9.4.1.9.2,1.3.2s.8,0,1.2-.1c.8-.2,1.5-.7,2-1.4.3-.4.5-.8.7-1.3.1-.3.2-.5.6-.5s.2,0,.3,0c.3,0,.6,0,.9.1.5,0,1,0,1.5.3,0,0,.2.1.2.2,0,.5-.3,1-.5,1.4h0c-.9,2-2.4,3.2-4.5,3.8-.8.2-1.7.3-2.5.3ZM134.9,74.2c0,0,.1,0,.2,0s.1,0,.2,0c0,0,.2,0,.2,0,1.6,0,2.9,0,4,0s2.1,0,3.1,0h0c.1,0,.2,0,.3,0,0,0,.1,0,.2,0,.1,0,.2,0,.2,0,0,0,0-.3,0-.6,0,0,0-.2,0-.3-.2-.8-.5-1.5-1-2.1-.8-.9-1.8-1.3-3-1.3s-.6,0-1,0c-1.9.3-3.4,2.1-3.4,4.1Z"/>
    <path class="st0" d="M96.4,84.9c-.8,0-1.7,0-2.6-.3-2.3-.7-3.9-2.2-4.7-4.5-.2-.7-.4-1.4-.5-2.2-.2-2.1,0-4,.5-5.8.8-2.4,2.4-3.9,4.8-4.6.8-.2,1.6-.3,2.4-.3s1.6.1,2.4.3c2.3.7,3.8,2.3,4.4,4.8,0,.2,0,.4,0,.4,0,.1-.2.2-.4.2-.3,0-.6.1-1,.1-.4,0-.7.1-1.1.2,0,0-.1,0-.2,0-.3,0-.4-.1-.5-.4,0-.2-.2-.5-.3-.8-.3-.6-1.1-2.1-3.2-2.1s0,0,0,0c-1.9,0-3.4,1.1-4,2.9-.3.9-.4,1.9-.4,3.2,0,0,0,0,0,0,0,1.1.1,2.1.4,3,.5,1.4,1.4,2.3,2.7,2.7.4.1.8.2,1.2.2h0c.4,0,.8,0,1.2-.2,1.1-.3,1.8-1,2.3-2.1.2-.5.3-.9.4-1.4,0-.3.2-.4.5-.4s0,0,0,0c.7,0,1.5.2,2.3.3.1,0,.2,0,.3.2,0,0,0,.2,0,.3h0c0,.4-.1.7-.2,1-.9,3.1-3.5,5-6.6,5h0Z"/>
    <path class="st0" d="M91.6,76.2c0,1,0,2.1.4,3.1.5,1.4,1.4,2.4,2.8,2.9.8.2,1.7.3,2.5,0,1.2-.3,2-1.1,2.4-2.2.2-.5.3-1,.4-1.5,0-.2.2-.3.3-.2.8.1,1.5.2,2.3.3.1,0,.2.1.2.3,0,.3-.1.7-.2,1-.9,3.2-3.6,4.9-6.4,4.9-.9,0-1.7,0-2.5-.3-2.3-.7-3.8-2.2-4.6-4.4-.3-.7-.4-1.4-.5-2.1-.2-1.9-.1-3.8.5-5.7.8-2.3,2.3-3.8,4.7-4.5,1.5-.4,3.1-.4,4.6,0,2.3.7,3.6,2.3,4.2,4.6,0,.2,0,.3-.3.4-.7.1-1.4.2-2.1.3-.2,0-.4,0-.4-.2,0-.3-.2-.5-.3-.8-.5-1.2-1.6-2.3-3.5-2.3-2,0-3.5,1.2-4.2,3.1-.3,1.1-.4,2.1-.4,3.3Z"/>
    <path class="st0" d="M125.2,84.5c-.4,0-.8,0-1.1,0,0,0-.2,0-.2-.2-.2-.6-.2-1.2-.1-1.7,0-.2,0-.4,0-.6,0-2.7,0-5.4,0-8,0-1,0-2,0-3,0-.2,0-.5,0-.7,0,0,0,0,0,0,0,0,0,0,0,0,0,0,0,0,0,0-.2,0-.5,0-.7,0h-.2c-.3,0-.6,0-.9,0-.3,0-.5-.2-.5-.6,0-.2,0-.4,0-.6,0-.3,0-.7,0-1,0-.2,0-.3.1-.4,0-.1.2-.2.4-.2h.2c.2,0,.4,0,.6,0,.3,0,.6,0,.8,0,.1,0,.2,0,.3,0,0,0,0-.2,0-.3,0-.1,0-.2,0-.4,0-.2,0-.4,0-.6,0-.1,0-.2,0-.3,0-.5,0-1,0-1.4.2-1.9,1.5-3.2,3.3-3.5.5,0,1-.1,1.5-.1.7,0,1.5,0,2.2.2.5,0,.5.3.5.7,0,.5-.2,1.1-.3,1.7,0,.3-.2.5-.6.5s0,0-.1,0c-.1,0-.2,0-.4,0-.2,0-.4,0-.6,0,0,0-.2,0-.3,0-.3,0-.5,0-.7,0-.8,0-1.1.5-1.3,1.2-.1.7,0,1.4,0,2,0,0,0,.2,0,.3,0,0,0,0,0,0,.2,0,.4,0,.5,0h.2c.2,0,.3,0,.5,0,.2,0,.3,0,.5,0,.2,0,.5,0,.7,0,.3,0,.5,0,.6.1.1.1.1.3.1.6,0,.2,0,.3,0,.5,0,.4,0,.8,0,1.2,0,0,0,.1-.1.2-.3.1-.6.1-.8.1s-.2,0-.3,0c-.1,0-.2,0-.3,0s-.2,0-.2,0c0,0-.1,0-.2,0s-.2,0-.3,0c-.1,0-.2,0-.3,0-.2,0-.3,0-.4,0,0,.3,0,.5,0,.8,0,.1,0,.3,0,.4,0,1.4,0,2.8,0,4.2,0,.5,0,1,0,1.5v1.3c0,1.6,0,3.1,0,4.7,0,.2,0,.5,0,.7,0,.3-.2.5-.5.5,0,0,0,0-.1,0h0c0,0-.2,0-.3,0-.2,0-.4,0-.5,0-.2,0-.4,0-.5,0Z"/>
    <path class="st0" d="M126.9,77.2c0,2,0,4,0,6,0,.2,0,.5,0,.7,0,.2-.1.3-.3.3,0,0,0,0,0,0-.8,0-1.6,0-2.4,0-.2-.7-.1-1.5-.1-2.3,0-3.7,0-7.3,0-11,0-.2,0-.5,0-.7,0-.2-.1-.3-.3-.3-.3,0-.5,0-.8,0-.3,0-.7,0-1,0-.2,0-.3-.1-.3-.3,0-.5,0-1,0-1.6,0-.2.1-.3.3-.3.5,0,1,0,1.6,0,.5,0,.5,0,.5-.6,0-.3,0-.6,0-.9,0-.6,0-1.2.1-1.7.2-1.8,1.4-3,3.1-3.3,1.2-.2,2.4-.1,3.6.1.3,0,.3,0,.3.4,0,.6-.2,1.1-.3,1.7,0,.3-.1.3-.5.3-.3,0-.7,0-1,0-.3,0-.7,0-1,0-.8.1-1.3.5-1.5,1.4-.1.8,0,1.6,0,2.4,0,.1.1.2.2.2.2,0,.4,0,.5,0,.6,0,1.2,0,1.8,0,.5,0,.5,0,.5.5,0,.5,0,1.1,0,1.6-.5.2-1.1,0-1.6.1-.5,0-1-.1-1.4,0-.1.4,0,.9,0,1.4,0,1.9,0,3.8,0,5.8Z"/>
    <path class="st0" d="M139.3,66s0,0-.1,0c-.2,0-.4,0-.6,0s-.3,0-.5,0c-.2,0-.3,0-.4,0s-.1,0-.2,0c-.3-.3-.1-.6,0-.7,0,0,0,0,0,0,.2-.5.4-.9.7-1.4.3-.7.7-1.4,1-2.1.2-.4.4-.6.9-.6h0c.4,0,.8,0,1.3,0s.6,0,.9,0c.3,0,.6,0,.9,0s.2,0,.2.2c0,.4-.1.5-.2.7,0,0,0,0,0,0-.3.4-.6.8-.9,1.1-.6.7-1.2,1.5-1.8,2.3-.3.4-.6.6-1.1.6Z"/>
    <path class="st0" d="M143.1,61.4c0,.3-.1.4-.2.6-.9,1.1-1.8,2.2-2.6,3.4-.3.4-.6.5-1,.5-.5,0-1,0-1.5,0-.2-.2,0-.4,0-.5.5-1.2,1.1-2.3,1.6-3.5.2-.3.4-.4.7-.4,1,0,2,0,3,0Z"/>
  </g>
  <path class="st1" d="M77.3,119.5c-.1-.3-.2-.6-.3-.9v-.2c0,0,0,0,0,0,.1,0,.3-.2.4-.3.3-.2.7-.5,1.1-.6l.5-.2-.2.5s0,0,0,.1c0,.1,0,.2-.2.3-.3.3-.5.7-.7,1,0,0-.1.2-.2.2,0,0,0,0,0,0l-.3.3v-.4Z"/>
  <path class="st1" d="M78.6,117.7c0,.1,0,.3-.2.4-.3.3-.6.7-.7,1.1,0,0-.1.1-.2.2-.1-.3-.2-.6-.3-.9.5-.3.9-.7,1.4-.9Z"/>
  <path class="st1" d="M73.8,124.8s0,0,0,0c0,0-.2-.2,0-.4h0s0,0,0,0c.3-.2.6-.3,1-.4h.7c0-.1-.5.4-.5.4-.3.3-.6.5-.9.7h-.3c0,0,0-.2,0-.2Z"/>
  <path class="st1" d="M73.9,124.5c.2-.2.5-.3.9-.3-.3.3-.5.5-.8.6,0,0-.2-.2,0-.3Z"/>
  <path class="st1" d="M79.1,117.9c-.1,0-.2,0-.3-.2l-.3-.2,1.1-.6v.5c-.1.2-.2.5-.5.5Z"/>
  <path class="st1" d="M79.2,117.4c0,.3,0,.3-.3.2.1,0,.2-.1.3-.2Z"/>
  <path class="st1" d="M224.8,123s0,0,.1,0c0,0,0,0,0,0,0,0,0,0-.1,0,0,0,0,0,0,0Z"/>
  <path class="st1" d="M76.9,118.4c-.1,0-.2,0-.2-.2l.4-.2s0,.1,0,.2h0c0,.1-.1.1-.1.1Z"/>
  <path class="st1" d="M76.9,118.1s0,0,0,0c0,0,0,0,0,0Z"/>
  <path class="st3" d="M103.4,138.7s0,0,0,0c.4,0,.7.1,1.1.2.9.2,1.8.3,2.6.5,0,0,.2,0,.3,0,.1,0,.2,0,.3,0s0,0,0,0c0,0,0-.2,0-.4,0,0,0-.2-.1-.2-.2-.5-.5-.9-.8-1.3-.4-.4-.9-.6-1.4-.6,0,0,0,0-.1,0-.3,0-.5,0-.8.2-.5.4-.9.8-1,1.5,0,0,0,0,0,0Z"/>
  <path class="st1" d="M84.5,126.4c0-.1-.2-.2-.3-.3-.2-.2-.5-.4-.5-.7,0,0,0,0,0,0,0,0,0,0,0,0,0,0,0,0-.1,0-.2-.1-.5-.2-.6-.6,0,0-.2-.1-.3-.2,0,0-.1,0-.2,0h-.2c-.6-.4-1.1-.7-1.7-1.1l.2-.4c.5.1,1,.2,1.6.2s.4,0,.6,0h.2s0,.2,0,.2c0,0,0,0,0,0,0,0,0,.1,0,.2,0,.3.1.5.5.6,1.2.4,1.4.8,1.3,2.1v.7c0,0-.4-.6-.4-.6Z"/>
  <path class="st1" d="M83,123.3c0,0,0,.2,0,.3,0,.4.2.7.6.8,1.1.4,1.3.6,1.1,1.9-.2-.4-.8-.5-.8-1,0,0-.1-.1-.2-.2-.2-.1-.5-.2-.6-.5,0-.2-.4-.3-.6-.4-.6-.3-1.3-.7-1.9-1.1.8.2,1.5.3,2.3.2Z"/>
  <path class="st1" d="M136.1,145.8c-.6,0-.9-.3-1.1-1,0-.2,0-.5-.1-.7,0-.1,0-.2,0-.3h0s0,0,0,0c0-1,.3-1.9.8-2.8,1.1-2,2.6-3.3,4.4-4,.3-.1.5-.2.7-.2s.3,0,.3.1c.1.2.1.4,0,.9-.4,2.2-1.1,4.1-2.2,5.7-.4.6-.8,1.1-1.2,1.5-.4.3-.7.5-1.1.7-.2,0-.3,0-.5,0Z"/>
  <path class="st1" d="M135,143.8c0-1,.3-1.9.8-2.7,1-1.8,2.3-3.2,4.3-3.9.8-.3.9-.2.7.6-.4,2-1.1,3.9-2.2,5.7-.3.5-.7,1-1.2,1.4-.3.3-.6.5-1,.6-.7.2-1.1,0-1.3-.7,0-.3,0-.7-.1-1Z"/>
  <path class="st1" d="M107.7,140c-.1,0-.3,0-.4,0,0,0-.1,0-.2,0-.9-.2-1.8-.3-2.6-.5-.4,0-.7-.1-1.1-.2-.2,0-.3-.1-.3-.2,0,0,0-.2,0-.4.2-.7.6-1.3,1.2-1.7.3-.2.6-.3,1-.3s0,0,.1,0c.6,0,1.2.3,1.7.8.4.4.7.9.9,1.5,0,0,0,.1,0,.2.1.2.3.6,0,1,0,0-.2.2-.4.2Z"/>
  <path class="st1" d="M105.3,136.7c.6,0,1.1.3,1.5.7.4.4.7.8.9,1.4.1.3.4.6.1.9-.2.2-.5,0-.8,0-1.3-.2-2.5-.5-3.8-.7-.2,0-.3-.2-.2-.3.2-.7.5-1.2,1.1-1.6.3-.2.6-.3,1-.3Z"/>
</svg>